<svg width="24" height="24" viewBox="0 0 24 24" fill="none" xmlns="http://www.w3.org/2000/svg">
<path d="M9.704 16.294C9.79685 16.3869 9.87048 16.4972 9.9207 16.6186C9.97092 16.7399 9.99675 16.87 9.9967 17.0014C9.99666 17.1327 9.97074 17.2628 9.92043 17.3841C9.87012 17.5054 9.79641 17.6157 9.7035 17.7085C9.61059 17.8013 9.5003 17.875 9.37893 17.9252C9.25757 17.9754 9.12749 18.0013 8.99615 18.0012C8.8648 18.0012 8.73475 17.9752 8.61341 17.9249C8.49208 17.8746 8.38184 17.8009 8.289 17.708L3.292 12.704C3.10483 12.5165 2.99971 12.2624 2.99971 11.9975C2.99971 11.7326 3.10483 11.4785 3.292 11.291L8.29 6.293C8.47751 6.10536 8.73188 5.9999 8.99715 5.9998C9.26242 5.99971 9.51686 6.105 9.7045 6.2925C9.89214 6.48001 9.99761 6.73438 9.9977 6.99965C9.9978 7.26492 9.89251 7.51936 9.705 7.707L6.41 11H13C15.0784 11 17.0753 11.8089 18.5677 13.2555C20.0602 14.702 20.9311 16.6726 20.996 18.75L21 19C21 19.2652 20.8946 19.5196 20.7071 19.7071C20.5196 19.8946 20.2652 20 20 20C19.7348 20 19.4804 19.8946 19.2929 19.7071C19.1054 19.5196 19 19.2652 19 19C19.0001 17.4476 18.3984 15.9556 17.3215 14.8375C16.2446 13.7194 14.7763 13.0622 13.225 13.004L13 13H6.414L9.704 16.294Z" fill="black"/>
</svg>
